<svg xmlns="http://www.w3.org/2000/svg" viewBox="0 0 30 20" role="img" aria-label="United States flag">
  <rect width="30" height="20" fill="#b22234"/>
  <path d="M0 2h30v2H0zm0 4h30v2H0zm0 4h30v2H0zm0 4h30v2H0zm0 4h30v2H0z" fill="#fff"/>
  <rect width="13" height="10.8" fill="#3c3b6e"/>
  <g fill="#fff">
    <circle cx="2" cy="1.6" r=".35"/><circle cx="4" cy="1.6" r=".35"/><circle cx="6" cy="1.6" r=".35"/><circle cx="8" cy="1.6" r=".35"/><circle cx="10" cy="1.6" r=".35"/>
    <circle cx="3" cy="3.2" r=".35"/><circle cx="5" cy="3.2" r=".35"/><circle cx="7" cy="3.2" r=".35"/><circle cx="9" cy="3.2" r=".35"/><circle cx="11" cy="3.2" r=".35"/>
    <circle cx="2" cy="4.8" r=".35"/><circle cx="4" cy="4.8" r=".35"/><circle cx="6" cy="4.8" r=".35"/><circle cx="8" cy="4.8" r=".35"/><circle cx="10" cy="4.8" r=".35"/>
    <circle cx="3" cy="6.4" r=".35"/><circle cx="5" cy="6.4" r=".35"/><circle cx="7" cy="6.4" r=".35"/><circle cx="9" cy="6.4" r=".35"/><circle cx="11" cy="6.4" r=".35"/>
    <circle cx="2" cy="8" r=".35"/><circle cx="4" cy="8" r=".35"/><circle cx="6" cy="8" r=".35"/><circle cx="8" cy="8" r=".35"/><circle cx="10" cy="8" r=".35"/>
  </g>
</svg>
